<svg width="40" height="40" viewBox="0 0 40 40" fill="none" xmlns="http://www.w3.org/2000/svg">
<path d="M19.9999 3.33331C13.5499 3.33331 8.33325 8.54998 8.33325 15C8.33325 23.75 19.9999 36.6666 19.9999 36.6666C19.9999 36.6666 31.6666 23.75 31.6666 15C31.6666 8.54998 26.4499 3.33331 19.9999 3.33331ZM11.6666 15C11.6666 10.4 15.3999 6.66665 19.9999 6.66665C24.5999 6.66665 28.3333 10.4 28.3333 15C28.3333 19.8 23.5333 26.9833 19.9999 31.4666C16.5333 27.0166 11.6666 19.75 11.6666 15Z" fill="white"/>
<path d="M19.9999 19.1666C22.3011 19.1666 24.1666 17.3012 24.1666 15C24.1666 12.6988 22.3011 10.8333 19.9999 10.8333C17.6987 10.8333 15.8333 12.6988 15.8333 15C15.8333 17.3012 17.6987 19.1666 19.9999 19.1666Z" fill="white"/>
</svg>
