<svg width="24" height="25" viewBox="0 0 24 25" fill="none" xmlns="http://www.w3.org/2000/svg">
<path d="M14.2959 4.51184L21.0459 11.2618C21.1508 11.3664 21.234 11.4906 21.2908 11.6273C21.3476 11.764 21.3768 11.9107 21.3768 12.0587C21.3768 12.2068 21.3476 12.3534 21.2908 12.4901C21.234 12.6269 21.1508 12.7511 21.0459 12.8556L14.2959 19.6056C14.0846 19.8169 13.7979 19.9357 13.4991 19.9357C13.2002 19.9357 12.9135 19.8169 12.7022 19.6056C12.4908 19.3942 12.3721 19.1076 12.3721 18.8087C12.3721 18.5098 12.4908 18.2232 12.7022 18.0118L17.5313 13.1828L3.75 13.1828C3.45163 13.1828 3.16548 13.0643 2.9545 12.8533C2.74353 12.6423 2.625 12.3561 2.625 12.0578C2.625 11.7594 2.74353 11.4733 2.95451 11.2623C3.16548 11.0513 3.45163 10.9328 3.75 10.9328L17.5313 10.9328L12.7013 6.10372C12.4899 5.89237 12.3712 5.60573 12.3712 5.30684C12.3712 5.00796 12.4899 4.72131 12.7013 4.50997C12.9126 4.29862 13.1992 4.17989 13.4981 4.17989C13.797 4.17989 14.0837 4.29862 14.295 4.50997L14.2959 4.51184Z" fill="black"/>
</svg>
