<svg width="21" height="21" viewBox="0 0 21 21" fill="none" xmlns="http://www.w3.org/2000/svg">
<path d="M13.4583 11.3333C14.0833 11.3333 14.6333 10.9916 14.9166 10.475L17.8999 5.06663C18.2083 4.51663 17.8083 3.83329 17.1749 3.83329H4.84159L4.05825 2.16663H1.33325V3.83329H2.99992L5.99992 10.1583L4.87492 12.1916C4.26659 13.3083 5.06659 14.6666 6.33325 14.6666H16.3333V13H6.33325L7.24992 11.3333H13.4583ZM5.63325 5.49996H15.7583L13.4583 9.66663H7.60825L5.63325 5.49996ZM6.33325 15.5C5.41658 15.5 4.67492 16.25 4.67492 17.1666C4.67492 18.0833 5.41658 18.8333 6.33325 18.8333C7.24992 18.8333 7.99992 18.0833 7.99992 17.1666C7.99992 16.25 7.24992 15.5 6.33325 15.5ZM14.6666 15.5C13.7499 15.5 13.0083 16.25 13.0083 17.1666C13.0083 18.0833 13.7499 18.8333 14.6666 18.8333C15.5833 18.8333 16.3333 18.0833 16.3333 17.1666C16.3333 16.25 15.5833 15.5 14.6666 15.5Z" fill="#197AC9"/>
</svg>
